
<svg
    width="14"
    height="14"
    viewBox="0 0 16 16"
    fill="none"
    xmlns="http://www.w3.org/2000/svg"
>
    <path
            fill-rule="evenodd"
            clip-rule="evenodd"
            d="M7.99996 3.41675C5.46865 3.41675 3.41663 5.46878 3.41663 8.00008C3.41663 8.69044 2.85698 9.25008 2.16663 9.25008C1.47627 9.25008 0.916626 8.69044 0.916626 8.00008C0.916626 4.08806 4.08794 0.916748 7.99996 0.916748C11.912 0.916748 15.0833 4.08806 15.0833 8.00008C15.0833 11.9121 11.912 15.0834 7.99996 15.0834C7.3096 15.0834 6.74996 14.5238 6.74996 13.8334C6.74996 13.1431 7.3096 12.5834 7.99996 12.5834C10.5313 12.5834 12.5833 10.5314 12.5833 8.00008C12.5833 5.46878 10.5313 3.41675 7.99996 3.41675Z"
            fill="url(#paint0_linear)"
    />
    <defs>
        <linearGradient
                id="paint0_linear"
                x1="3.33329"
                y1="3.33341"
                x2="10.9409"
                y2="11.9913"
                gradientUnits="userSpaceOnUse"
        >
            <stop stop-color="#74FA8A" />
            <stop offset="1" stop-color="#5ED4F3" />
        </linearGradient>
    </defs>
</svg>
